<?xml version="1.0" encoding="UTF-8" standalone="no"?>
<svg
   xmlns:dc="http://purl.org/dc/elements/1.1/"
   xmlns:cc="http://creativecommons.org/ns#"
   xmlns:rdf="http://www.w3.org/1999/02/22-rdf-syntax-ns#"
   xmlns:svg="http://www.w3.org/2000/svg"
   xmlns="http://www.w3.org/2000/svg"
   xmlns:sodipodi="http://sodipodi.sourceforge.net/DTD/sodipodi-0.dtd"
   xmlns:inkscape="http://www.inkscape.org/namespaces/inkscape"
   version="1.1"
   id="Capa_1"
   x="0px"
   y="0px"
   viewBox="0 0 53 53"
   style="enable-background:new 0 0 53 53;"
   xml:space="preserve"
   sodipodi:docname="text-document-svgrepo-com_shadow.svg"
   inkscape:version="1.0.2 (e86c870879, 2021-01-15)"><metadata
   id="metadata53"><rdf:RDF><cc:Work
       rdf:about=""><dc:format>image/svg+xml</dc:format><dc:type
         rdf:resource="http://purl.org/dc/dcmitype/StillImage" /><dc:title></dc:title></cc:Work></rdf:RDF></metadata><defs
   id="defs51"><filter
     style="color-interpolation-filters:sRGB;"
     inkscape:label="Drop Shadow"
     id="filter1212"><feFlood
       flood-opacity="0.498039"
       flood-color="rgb(0,0,0)"
       result="flood"
       id="feFlood1202" /><feComposite
       in="flood"
       in2="SourceGraphic"
       operator="in"
       result="composite1"
       id="feComposite1204" /><feGaussianBlur
       in="composite1"
       stdDeviation="1.4"
       result="blur"
       id="feGaussianBlur1206" /><feOffset
       dx="1.5"
       dy="1.4"
       result="offset"
       id="feOffset1208" /><feComposite
       in="SourceGraphic"
       in2="offset"
       operator="over"
       result="composite2"
       id="feComposite1210" /></filter></defs><sodipodi:namedview
   pagecolor="#ffffff"
   bordercolor="#666666"
   borderopacity="1"
   objecttolerance="10"
   gridtolerance="10"
   guidetolerance="10"
   inkscape:pageopacity="0"
   inkscape:pageshadow="2"
   inkscape:window-width="3072"
   inkscape:window-height="1659"
   id="namedview49"
   showgrid="false"
   inkscape:zoom="9.6792453"
   inkscape:cx="32.560832"
   inkscape:cy="37.995327"
   inkscape:window-x="0"
   inkscape:window-y="0"
   inkscape:window-maximized="1"
   inkscape:current-layer="Capa_1" />
<g
   id="g16"
   style="filter:url(#filter1212)">
	<g
   id="g14">
		<path
   d="M45.707,10.075l-9.794-9.783C35.726,0.105,35.471,0,35.206,0H8C7.447,0,7,0.448,7,1v51c0,0.552,0.447,1,1,1h37    c0.553,0,1-0.448,1-1V10.783C46,10.517,45.895,10.263,45.707,10.075z M42.586,10H36V3.414L42.586,10z M9,51V2h25v9    c0,0.552,0.447,1,1,1h9v39H9z"
   id="path2" />
		<path
   d="M39,17H14c-0.553,0-1,0.448-1,1v28c0,0.552,0.447,1,1,1h25c0.553,0,1-0.448,1-1V18C40,17.448,39.553,17,39,17z M38,45H15    V19h23V45z"
   id="path4" />
		<rect
   x="20"
   y="22"
   width="13.018"
   height="2"
   id="rect6" />
		<rect
   x="20"
   y="28"
   width="13.018"
   height="2"
   id="rect8" />
		<rect
   x="20"
   y="34"
   width="13.018"
   height="2"
   id="rect10" />
		<rect
   x="20"
   y="40"
   width="13.018"
   height="2"
   id="rect12" />
	</g>
</g>
<g
   id="g18">
</g>
<g
   id="g20">
</g>
<g
   id="g22">
</g>
<g
   id="g24">
</g>
<g
   id="g26">
</g>
<g
   id="g28">
</g>
<g
   id="g30">
</g>
<g
   id="g32">
</g>
<g
   id="g34">
</g>
<g
   id="g36">
</g>
<g
   id="g38">
</g>
<g
   id="g40">
</g>
<g
   id="g42">
</g>
<g
   id="g44">
</g>
<g
   id="g46">
</g>
</svg>
